<?xml version="1.0" encoding="iso-8859-1"?>
<!-- Generator: Adobe Illustrator 19.0.0, SVG Export Plug-In . SVG Version: 6.00 Build 0)  -->
<svg xmlns="http://www.w3.org/2000/svg" xmlns:xlink="http://www.w3.org/1999/xlink" version="1.1" id="Layer_1" x="0px" y="0px" viewBox="0 0 512 512" style="enable-background:new 0 0 512 512;" xml:space="preserve">
<g>
	<g>
		<path d="M497.07,78.7l-33.888-28.563c-1.803-1.52-4.086-2.354-6.444-2.354h-154.08v-20.76c0-14.9-12.123-27.023-27.025-27.023    H236.67c-14.901,0-27.024,12.123-27.024,27.024v20.76H156.55c-5.522,0-10,4.478-10,10v79.641c0,5.522,4.478,10,10,10h53.096    v30.101H55.264c-2.358,0-4.642,0.834-6.444,2.354l-33.89,28.563c-5.586,4.708-8.789,11.599-8.789,18.904    c0.001,7.305,3.204,14.194,8.79,18.902l33.889,28.563c1.803,1.52,4.086,2.354,6.444,2.354h154.383V492h-40.808    c-5.522,0-10,4.478-10,10c0,5.522,4.478,10,10,10h174.627c5.522,0,10-4.478,10-10c0-5.522-4.478-10-10-10h-40.808V350.939    c0-5.522-4.478-10-10-10c-5.522,0-10,4.478-10,10V492h-53.012V277.166h125.805c5.522,0,10-4.478,10-10v-79.641    c0-5.522-4.478-10-10-10h-52.793v-30.101h154.08c2.358,0,4.642-0.834,6.445-2.354l33.887-28.563    c5.586-4.707,8.79-11.597,8.79-18.902C505.862,90.3,502.658,83.409,497.07,78.7z M229.646,27.024L229.646,27.024    c0.001-3.873,3.152-7.024,7.025-7.024h38.963c3.873,0,7.024,3.151,7.024,7.024v20.76h-53.012V27.024z M345.451,197.526v59.64    H58.917l-31.097-26.21c-1.46-1.23-1.678-2.79-1.679-3.61c0-0.82,0.219-2.38,1.679-3.611l31.097-26.209H345.451z M229.646,177.525    v-30.101h53.012v30.101H229.646z M484.18,101.215l-31.095,26.21H220.652c-0.331-0.033-0.666-0.051-1.005-0.051    s-0.675,0.018-1.005,0.051h-52.09V67.784h286.535l31.096,26.209c1.461,1.231,1.679,2.791,1.679,3.611    S485.643,99.983,484.18,101.215z"/>
	</g>
</g>
<g>
	<g>
		<circle cx="256.151" cy="96.15" r="10"/>
	</g>
</g>
<g>
	<g>
		<circle cx="256.151" cy="227.34" r="10"/>
	</g>
</g>
<g>
	<g>
		<circle cx="292.661" cy="306.69" r="10"/>
	</g>
</g>
<g>
</g>
<g>
</g>
<g>
</g>
<g>
</g>
<g>
</g>
<g>
</g>
<g>
</g>
<g>
</g>
<g>
</g>
<g>
</g>
<g>
</g>
<g>
</g>
<g>
</g>
<g>
</g>
<g>
</g>
</svg>
