<?xml version="1.0" encoding="iso-8859-1"?>
<!-- Generator: Adobe Illustrator 19.0.0, SVG Export Plug-In . SVG Version: 6.00 Build 0)  -->
<svg xmlns="http://www.w3.org/2000/svg" xmlns:xlink="http://www.w3.org/1999/xlink" version="1.1" id="Layer_1" x="0px" y="0px" viewBox="0 0 512 512" style="enable-background:new 0 0 512 512;" xml:space="preserve">
<g>
	<g>
		<path d="M437.433,263.396l-31.064-56.746v-38.896C406.369,75.254,331.114,0,238.614,0S70.86,75.254,70.859,167.754v28.807    c0,35.784,10.758,70.014,31.144,99.213v71.746c0,5.523,4.478,10,10,10c5.522,0,10-4.477,10-10v-74.942    c0-2.111-0.668-4.168-1.908-5.876c-19.126-26.336-29.235-57.506-29.235-90.141v-28.807C90.86,86.282,157.142,20,238.615,20    c81.472,0,147.754,66.282,147.754,147.754v41.455c0,1.678,0.423,3.33,1.229,4.802l32.293,58.99    c2.44,4.458,0.688,8.321-0.178,9.776c-0.863,1.449-3.413,4.811-8.46,4.811c-0.017,0-0.034,0-0.052,0l-14.786-0.068    c-0.016,0-0.031,0-0.046,0c-2.644,0-5.181,1.047-7.055,2.913c-1.885,1.877-2.945,4.427-2.945,7.087v44.629    c0,23.848-19.402,43.25-43.251,43.25h-30.021c-13.624,0-24.708,11.084-24.708,24.708v76.435l-131.318-59.023    c-5.04-2.265-10.957-0.017-13.221,5.021c-2.264,5.038-0.016,10.957,5.021,13.221l145.418,65.36    c1.31,0.588,2.706,0.879,4.099,0.879c1.9,0,3.789-0.541,5.432-1.604c2.848-1.842,4.568-5.003,4.568-8.396v-91.894    c0-2.596,2.112-4.708,4.708-4.708h30.021c34.877,0,63.251-28.374,63.251-63.25v-34.583l4.74,0.022c0.048,0,0.095,0,0.143,0    c10.623,0,20.202-5.441,25.643-14.576C442.361,283.835,442.562,272.764,437.433,263.396z"/>
	</g>
</g>
<g>
	<g>
		<path d="M255.343,176.132h-21.745c-9.168,0-16.627-7.458-16.627-16.626v-12.647c0-9.168,7.459-16.626,16.627-16.626h24.092    c7.874,0,14.279,6.406,14.279,14.279c0,5.523,4.478,10,10,10c5.522,0,10-4.477,10-10c0-18.902-15.378-34.279-34.279-34.279h-3.22    V93.938c0-5.523-4.478-10-10-10c-5.522,0-10,4.477-10,10v16.293h-0.872c-20.196,0-36.627,16.431-36.627,36.626v12.647    c0,20.196,16.431,36.626,36.627,36.626h21.745c9.168,0,16.626,7.458,16.626,16.626v12.648c0,9.168-7.458,16.626-16.626,16.626    h-24.092c-7.874,0-14.279-6.406-14.279-14.279c0-5.523-4.478-10-10-10c-5.522,0-10,4.477-10,10    c0,18.902,15.378,34.279,34.279,34.279h3.22v16.293c0,5.523,4.478,10,10,10c5.522,0,10-4.477,10-10V262.03h0.873    c20.195,0,36.626-16.431,36.626-36.626v-12.648C291.969,192.563,275.539,176.132,255.343,176.132z"/>
	</g>
</g>
<g>
	<g>
		<circle cx="112.261" cy="417.76" r="10"/>
	</g>
</g>
<g>
</g>
<g>
</g>
<g>
</g>
<g>
</g>
<g>
</g>
<g>
</g>
<g>
</g>
<g>
</g>
<g>
</g>
<g>
</g>
<g>
</g>
<g>
</g>
<g>
</g>
<g>
</g>
<g>
</g>
</svg>
