<?xml version="1.0" encoding="iso-8859-1"?>
<!-- Generator: Adobe Illustrator 19.0.0, SVG Export Plug-In . SVG Version: 6.00 Build 0)  -->
<svg xmlns="http://www.w3.org/2000/svg" xmlns:xlink="http://www.w3.org/1999/xlink" version="1.1" id="Layer_1" x="0px" y="0px" viewBox="0 0 512 512" style="enable-background:new 0 0 512 512;" xml:space="preserve">
<g>
	<g>
		<path d="M255.12,335.872c-5.523,0-10,4.477-10,10v123.729c0,5.523,4.477,10,10,10s10-4.477,10-10V345.872    C265.12,340.35,260.643,335.872,255.12,335.872z"/>
	</g>
</g>
<g>
	<g>
		<path d="M287.786,137.743c9.304-9.146,15.088-21.861,15.088-35.908c0-27.778-22.599-50.377-50.377-50.377    s-50.378,22.599-50.378,50.377c0,14.779,6.398,28.091,16.569,37.315c-35.314,14.025-60.267,47.797-60.267,87.139v80.405    c0,24.271,19.068,44.27,43.349,46.493v116.414c0,5.523,4.477,10,10,10c5.523,0,10-4.477,10-10V229.085c0-5.523-4.477-10-10-10    c-5.523,0-10,4.477-10,10v103.961c-13.223-2.07-23.349-13.096-23.349-26.352v-80.405c0-40.846,34.406-74.076,76.698-74.076    s76.698,33.23,76.698,74.076v80.405c0,12.784-9.419,23.494-21.95,26.098V229.085c0-5.523-4.477-10-10-10s-10,4.477-10,10v240.517    c0,5.523,4.477,10,10,10s10-4.477,10-10V353.033c23.61-2.849,41.95-22.536,41.95-46.339v-80.405    C351.817,185.564,325.079,150.805,287.786,137.743z M252.498,132.212c-16.75,0-30.378-13.627-30.378-30.377    s13.628-30.377,30.378-30.377s30.377,13.627,30.377,30.377S269.248,132.212,252.498,132.212z"/>
	</g>
</g>
<g>
	<g>
		<path d="M440.853,43.201l-47.912-10.566c-5.395-1.191-10.73,2.219-11.919,7.611c-1.189,5.394,2.218,10.729,7.611,11.919    l24.225,5.343L374.886,81.58c-4.664,2.957-6.048,9.136-3.091,13.8c1.904,3.004,5.144,4.647,8.455,4.647    c1.831,0,3.684-0.503,5.345-1.556l38.164-24.193l-5.321,24.129c-1.189,5.393,2.218,10.729,7.612,11.918    c0.725,0.16,1.449,0.237,2.163,0.237c4.591,0,8.727-3.181,9.756-7.849l10.495-47.594C449.653,49.726,446.246,44.39,440.853,43.201    z"/>
	</g>
</g>
<g>
	<g>
		<circle cx="348.21" cy="110.33" r="9.999"/>
	</g>
</g>
<g>
	<g>
		<path d="M460.191,425.659l-10.496-47.593c-1.19-5.394-6.525-8.806-11.919-7.612c-5.394,1.189-8.801,6.525-7.612,11.918    l5.321,24.129l-38.164-24.194c-4.664-2.958-10.843-1.573-13.8,3.092c-2.957,4.665-1.573,10.843,3.092,13.8l37.972,24.072    l-24.225,5.343c-5.393,1.189-8.801,6.526-7.611,11.919c1.029,4.668,5.165,7.848,9.756,7.848c0.713,0,1.438-0.077,2.163-0.237    l47.912-10.567C457.973,436.388,461.381,431.052,460.191,425.659z"/>
	</g>
</g>
<g>
	<g>
		<circle cx="359.93" cy="370.45" r="9.999"/>
	</g>
</g>
<g>
	<g>
		<path d="M509.042,235.679l-34.836-34.549c-3.921-3.889-10.253-3.863-14.142,0.058c-3.889,3.921-3.863,10.253,0.058,14.142    l17.612,17.467l-44.958,0.039c-5.523,0.005-9.996,4.486-9.991,10.009c0.005,5.52,4.48,9.991,10,9.991c0.002,0,0.006,0,0.009,0    l45.188-0.039l-17.401,17.547c-3.889,3.921-3.862,10.253,0.059,14.142c1.95,1.934,4.496,2.899,7.041,2.899    c2.573,0,5.146-0.987,7.101-2.958l34.319-34.605C512.989,245.899,512.963,239.567,509.042,235.679z"/>
	</g>
</g>
<g>
	<g>
		<circle cx="394.86" cy="242.87" r="9.999"/>
	</g>
</g>
<g>
	<g>
		<path d="M137.113,81.581L99.141,57.509l24.225-5.343c5.393-1.189,8.801-6.525,7.611-11.919c-1.189-5.393-6.524-8.804-11.919-7.611    L71.147,43.202c-5.393,1.189-8.801,6.525-7.611,11.918l10.495,47.594c1.03,4.668,5.166,7.849,9.756,7.849    c0.713,0,1.438-0.077,2.163-0.237c5.394-1.189,8.801-6.525,7.612-11.918l-5.321-24.129l38.164,24.194    c1.661,1.053,3.514,1.556,5.345,1.556c3.311,0,6.551-1.644,8.455-4.647C143.162,90.717,141.778,84.538,137.113,81.581z"/>
	</g>
</g>
<g>
	<g>
		<circle cx="163.79" cy="110.33" r="9.999"/>
	</g>
</g>
<g>
	<g>
		<path d="M128.479,385.4c-2.957-4.664-9.136-6.048-13.8-3.091l-38.164,24.194l5.321-24.129c1.189-5.393-2.218-10.729-7.612-11.918    c-5.391-1.193-10.729,2.218-11.919,7.612L51.81,425.66c-1.189,5.393,2.218,10.729,7.611,11.918l47.912,10.567    c0.726,0.16,1.45,0.237,2.163,0.237c4.591,0,8.727-3.181,9.756-7.848c1.189-5.393-2.218-10.729-7.611-11.919l-24.226-5.343    l37.972-24.072C130.052,396.243,131.436,390.065,128.479,385.4z"/>
	</g>
</g>
<g>
	<g>
		<circle cx="152.07" cy="370.45" r="9.999"/>
	</g>
</g>
<g>
	<g>
		<path d="M79.222,232.836l-44.958-0.038l17.612-17.467c3.921-3.889,3.947-10.221,0.058-14.142    c-3.888-3.92-10.219-3.948-14.142-0.058L2.958,235.679c-3.921,3.889-3.947,10.22-0.059,14.142l34.319,34.605    c1.956,1.972,4.527,2.958,7.101,2.958c2.545,0,5.091-0.966,7.041-2.899c3.922-3.889,3.948-10.221,0.059-14.142l-17.401-17.546    l45.187,0.039c0.003,0,0.006,0,0.009,0c5.519,0,9.995-4.472,10-9.991C89.219,237.322,84.745,232.841,79.222,232.836z"/>
	</g>
</g>
<g>
	<g>
		<circle cx="117.14" cy="242.87" r="9.998"/>
	</g>
</g>
<g>
</g>
<g>
</g>
<g>
</g>
<g>
</g>
<g>
</g>
<g>
</g>
<g>
</g>
<g>
</g>
<g>
</g>
<g>
</g>
<g>
</g>
<g>
</g>
<g>
</g>
<g>
</g>
<g>
</g>
</svg>
